<svg width="300" height="300" viewBox="0 0 300 300" fill="none" xmlns="http://www.w3.org/2000/svg">
<path d="M299.685 141.572C297.746 107.812 283.14 75.9845 260.271 52.4634C248.827 40.6933 235.31 31.0093 220.245 24.2247C205.19 17.4401 188.588 13.5837 171.059 13.4689C171.059 13.4689 88.2375 13 87.6835 13H5.2826C2.36905 13 0 15.3636 0 18.2631V103.209C0 106.108 2.36905 108.472 5.2826 108.472H85.9927V190.499H5.2826C2.36905 190.499 0 192.863 0 195.762V280.708C0 283.608 2.36905 285.971 5.2826 285.971H87.6835C87.7504 285.971 87.8172 285.971 87.8745 285.962L163.856 286C200.93 285.943 234.966 270.24 259.707 245.513C284.448 220.795 299.99 186.978 300 150.538C300 147.562 299.895 144.577 299.685 141.572ZM92.7082 190.49V108.462H174.173V190.49H92.7082ZM6.71549 20.1865L86.2602 20.6267V101.745H6.71549V20.1865ZM86.2602 197.217V278.488L6.71549 278.603V197.217H86.2602ZM254.214 240.163C242.512 251.857 228.623 261.407 213.31 268.029C197.997 274.651 181.28 278.354 163.856 278.383L92.9756 278.479V197.217H175.606C178.519 197.217 180.888 194.853 180.888 191.954V107.008C180.888 104.108 178.519 101.745 175.606 101.745H92.9756V20.6649L171.021 21.0764C187.432 21.1817 202.926 24.7893 217.045 31.1432C238.223 40.6742 256.287 56.4251 269.393 75.7932C282.5 95.1612 290.619 118.137 291.985 142.05V142.117V142.098C292.186 144.921 292.281 147.734 292.281 150.538C292.281 184.815 277.637 216.767 254.214 240.163Z" fill="#4545F7"/>
</svg>
