<svg width="170" height="170" viewBox="0 0 170 170" fill="none" xmlns="http://www.w3.org/2000/svg">
<path d="M140.62 20.0507C143.354 17.317 147.786 17.3163 150.519 20.0497C153.253 22.7832 153.253 27.2154 150.519 29.9491L95.1835 85.29L150.519 140.631C153.253 143.365 153.253 147.797 150.519 150.53C147.786 153.264 143.354 153.263 140.62 150.529L85.284 95.1894L29.95 150.529C27.2166 153.263 22.7844 153.263 20.0506 150.53C17.3169 147.797 17.3164 143.365 20.0496 140.631L75.3856 85.29L20.0496 29.9491C17.3163 27.2153 17.3169 22.7831 20.0506 20.0497C22.7844 17.3164 27.2166 17.317 29.95 20.0507L85.284 75.3896L140.62 20.0507Z" fill="#4545F7"/>
</svg>
