<svg width="60" height="60" viewBox="0 0 60 60" fill="none" xmlns="http://www.w3.org/2000/svg">
<path d="M18 3.20117V20.1718L18.002 39.1973V56.2012L33.0195 56.1816C36.5449 56.1758 39.9277 55.4132 43.0254 54.0525C46.123 52.6897 48.9316 50.7287 51.3008 48.3239C56.0371 43.5142 59 36.9469 59 29.9006C59 29.3258 58.9805 28.7471 58.9395 28.1664V28.1605V28.1566C58.6641 23.2414 57.0195 18.5178 54.3691 14.5371C51.7188 10.5545 48.0625 7.3187 43.7793 5.35965C40.9219 4.05361 37.7871 3.31261 34.4668 3.29111L18 3.20117Z" fill="#0D0826"/>
<g clip-path="url(#clip0_529_1658)">
<path d="M35.5425 20.9346H18.327C18.114 20.9346 17.9414 21.107 17.9414 21.3197V38.5161C17.9414 38.7288 18.114 38.9012 18.327 38.9012H35.5425C35.7555 38.9012 35.9281 38.7288 35.9281 38.5161V21.3197C35.9281 21.107 35.7555 20.9346 35.5425 20.9346Z" fill="#4545F7"/>
<path d="M59.9383 28.3279C59.9383 28.3279 59.9383 28.324 59.9383 28.3202C59.9383 28.3202 59.9383 28.3182 59.9383 28.3163C59.5508 21.4821 56.634 15.0387 52.0689 10.2746C49.7844 7.89252 47.0835 5.93024 44.078 4.55723C41.0706 3.18422 37.7566 2.40239 34.2557 2.37928L0.374 2.2002C0.175433 2.2079 0.0154227 2.36773 0.0057835 2.56608L0 3.73882H0.00385567V20.55C0.00385567 20.7619 0.177361 20.9352 0.389423 20.9352H17.605C17.817 20.9352 17.9906 20.7619 17.9906 20.55V3.8351L34.2441 3.92368C37.5214 3.94486 40.6156 4.6747 43.436 5.96106C47.6638 7.89059 51.2727 11.0776 53.8888 15.0002C56.5048 18.9209 58.1281 23.5734 58.3999 28.4145V28.4184V28.4242C58.4404 28.9961 58.4597 29.5661 58.4597 30.1322C58.4597 37.0724 55.5351 43.5408 50.8601 48.278C48.5217 50.6465 45.7494 52.578 42.6919 53.9202C39.6343 55.2605 36.2953 56.0115 32.8156 56.0173L17.9925 56.0365V39.2889C17.9925 39.077 17.819 38.9037 17.6069 38.9037H0.389423C0.177361 38.9037 0.00385567 39.077 0.00385567 39.2889V56.0616V57.2285C0.011567 57.4327 0.177361 57.5983 0.381711 57.6021H0.545577H0.568711L32.8175 57.5598C40.2204 57.5482 47.016 54.3689 51.9571 49.364C56.8981 44.3592 60 37.5134 60.0019 30.1361C60.0019 29.5372 59.9807 28.9364 59.9402 28.3317L59.9383 28.3279Z" fill="#4545F7"/>
</g>
<defs>
<clipPath id="clip0_529_1658">
<rect width="60" height="60" fill="white"/>
</clipPath>
</defs>
</svg>
