<svg width="40" height="40" viewBox="0 0 40 40" fill="none" xmlns="http://www.w3.org/2000/svg">
<path d="M34.5273 28.6494C35.0796 28.6494 35.5273 29.0971 35.5273 29.6494C35.5273 30.2017 35.0796 30.6494 34.5273 30.6494H5.41016C4.85787 30.6494 4.41016 30.2017 4.41016 29.6494C4.41016 29.0971 4.85787 28.6494 5.41016 28.6494H34.5273ZM34.5273 18.8828C35.0796 18.8828 35.5273 19.3305 35.5273 19.8828C35.5273 20.4351 35.0796 20.8828 34.5273 20.8828H5.41016C4.85787 20.8828 4.41016 20.4351 4.41016 19.8828C4.41016 19.3305 4.85787 18.8828 5.41016 18.8828H34.5273ZM34.5273 9.11719C35.0796 9.11719 35.5273 9.5649 35.5273 10.1172C35.5273 10.6695 35.0796 11.1172 34.5273 11.1172H5.41016C4.85787 11.1172 4.41016 10.6695 4.41016 10.1172C4.41016 9.5649 4.85787 9.11719 5.41016 9.11719H34.5273Z" fill="#4545F7"/>
</svg>
