<svg width="40" height="40" viewBox="0 0 40 40" fill="none" xmlns="http://www.w3.org/2000/svg">
<path d="M33.5449 5.17578C33.9354 4.78528 34.5684 4.78538 34.959 5.17578C35.3494 5.5663 35.3495 6.19933 34.959 6.58984L21.4805 20.0684L34.959 33.5479C35.3494 33.9384 35.3495 34.5714 34.959 34.9619C34.5685 35.3521 33.9354 35.3522 33.5449 34.9619L20.0674 21.4824L6.58984 34.9619C6.19939 35.3522 5.56628 35.3521 5.17578 34.9619C4.78528 34.5714 4.7854 33.9384 5.17578 33.5479L18.6533 20.0684L5.17578 6.58984C4.78528 6.19931 4.78527 5.56629 5.17578 5.17578C5.56631 4.78528 6.19933 4.78527 6.58984 5.17578L20.0674 18.6543L33.5449 5.17578Z" fill="#4545F7"/>
</svg>
