<svg width="170" height="170" viewBox="0 0 170 170" fill="none" xmlns="http://www.w3.org/2000/svg">
<path d="M20.05 20.05C22.7836 17.3165 27.2167 17.3168 29.9504 20.05L138.59 128.69V63.7005C138.59 59.8348 141.725 56.7007 145.59 56.7005C149.456 56.7005 152.59 59.8347 152.59 63.7005V145.521C152.59 146.445 152.409 147.326 152.084 148.133C152.072 148.166 152.06 148.199 152.046 148.231C152.039 148.247 152.032 148.263 152.025 148.28C151.683 149.094 151.183 149.857 150.52 150.52C149.494 151.546 148.229 152.187 146.904 152.443C146.441 152.539 145.961 152.59 145.47 152.59H63.6605C59.7947 152.59 56.6604 149.456 56.6604 145.59C56.6607 141.725 59.7948 138.59 63.6605 138.59H128.691L20.05 29.9504C17.3168 27.2167 17.3165 22.7836 20.05 20.05Z" fill="#4545F7"/>
</svg>
