<?xml version="1.0" encoding="UTF-8"?>
<svg width="647px" height="648px" viewBox="0 0 647 648" version="1.1" xmlns="http://www.w3.org/2000/svg" xmlns:xlink="http://www.w3.org/1999/xlink">
    <title>Taig_Logo_Square_Orange</title>
    <g id="Page-1" stroke="none" stroke-width="1" fill="none" fill-rule="evenodd">
        <g id="Taig_Logo_Square_Orange" fill="#FF4A36" fill-rule="nonzero">
            <g id="Group">
                <path d="M310.52,282.98 C296.11,288.59 284.55,307.41 294.58,321.65 C305.91,337.73 329.28,332.35 344.52,318.98 C352.08,312.35 358.31,303.82 363.79,295.48 C338.49,275.96 319.39,279.52 310.52,282.98 Z" id="Path"></path>
                <path d="M495.34,153.86 C500.75,144.75 507.11,126.85 500.93,118.69 C494.99,110.85 480.25,113.21 473.6,118.63 C461.22,128.71 454.71,148.16 449.23,162.73 C445.26,173.27 441.75,183.97 438.37,194.71 C445.76,191.79 452.96,188.46 459.82,184.92 C474.12,177.53 486.95,167.99 495.34,153.87 L495.34,153.86 Z" id="Path"></path>
                <path d="M455.49,488.17 C440.31,488.17 429.99,498.94 429.99,514.88 C429.99,530.82 440.31,541.74 455.49,541.74 C470.67,541.74 480.38,531.12 480.68,514.88 C480.38,498.64 470.97,488.17 455.49,488.17 Z" id="Path"></path>
                <path d="M311.46,487.26 C297.65,487.26 287.94,497.43 287.94,512.91 C287.94,528.39 297.65,539.47 311.46,539.47 C325.27,539.47 334.83,529.15 334.83,512.91 C334.83,496.67 325.72,487.26 311.46,487.26 Z" id="Path"></path>
                <path d="M171.98,488.17 C156.8,488.17 146.48,498.94 146.48,514.88 C146.48,530.82 156.8,541.74 171.98,541.74 C187.16,541.74 196.87,531.12 197.17,514.88 C196.87,498.64 187.46,488.17 171.98,488.17 Z" id="Path"></path>
                <path d="M634.78,2.15 L13.88,-5.74996994e-05 C7.5,-0.02 2.26,5.18 2.23,11.56 L-5.74996994e-05,633.66 C-0.02,640.04 5.18,645.28 11.56,645.3 L632.47,647.450057 C638.85,647.47 644.09,642.27 644.11,635.89 L646.340057,13.79 C646.36,7.41 641.16,2.18 634.78,2.15 Z M80.1,84.88 L180.5,84.88 L180.5,124.11 L80.1,124.11 L80.1,84.88 Z M104.62,461.46 L104.62,556.31 L85.04,556.31 L85.04,461.46 L47.15,461.46 L47.15,443.68 L141.91,443.68 L141.91,461.46 L104.61,461.46 L104.62,461.46 Z M215.39,556.32 L197.18,556.32 L197.18,542.66 C192.48,550.86 183.67,558.29 168.8,558.29 C143,558.29 127.37,540.53 127.37,514.88 C127.37,489.23 143,471.47 168.8,471.47 C183.67,471.47 192.48,478.91 197.18,487.1 L197.18,473.29 L215.39,473.29 L215.39,556.31 L215.39,556.32 Z M225.95,361.01 L180.52,361.01 L180.52,124.89 L225.95,124.89 L225.95,361 L225.95,361.01 Z M225.95,84.88 L326.79,84.88 L326.79,124.11 L225.95,124.11 L225.95,84.88 L225.95,84.88 Z M253.49,556.32 L235.28,556.32 L235.28,473.34 L253.49,473.34 L253.49,556.32 Z M254.16,461.38 L234.99,461.38 L234.99,443.77 L254.16,443.77 L254.16,461.38 L254.16,461.38 Z M353.04,562.54 C353.04,579.54 342.87,589.71 325.57,589.71 L284.02,589.71 L284.02,574.08 L322.84,574.08 C331.04,574.08 334.83,570.13 334.83,562.39 L334.83,542.36 C329.06,550.71 319.65,556.02 306.6,556.02 C284.29,556.02 268.81,540.08 268.81,513.37 C268.81,486.66 284.29,471.48 306.6,471.48 C319.65,471.48 329.06,476.64 334.83,484.99 L334.83,473.3 L353.04,473.3 L353.04,562.54 L353.04,562.54 Z M311.94,364.62 C272.14,361.22 250.46,315.99 271.58,281.8 C292.14,248.51 335.03,247.26 367.46,261.38 C371.47,263.13 375.4,265.04 379.27,267.07 C383.45,257.73 387.1,248.16 390.44,238.47 C384.52,238.37 378.69,237.77 373.03,236.59 C346.01,230.95 315.1,211.07 296.97,190.21 C296.81,190.02 296.67,189.82 296.52,189.63 L319.54,166.36 C319.71,166.54 319.88,166.7 320.04,166.89 C339.76,189.59 371.81,207.87 401.21,204.59 C404,195.4 406.77,186.21 409.73,177.13 C420.11,145.28 432.9,99.13 466.66,85.35 C497.22,72.88 532.54,88.82 535.34,123.7 C538.23,159.67 513.31,191.67 484.11,209.06 C467.31,219.07 447.03,228.47 426.18,233.85 C420.73,250.92 414.82,267.91 407.38,284.14 C426.76,301.92 443.28,313.88 462.64,323.89 C477.17,331.4 491.2,332.73 505.94,325.03 C518.35,318.55 529.18,305.08 532.35,290.67 C533.96,283.34 534.26,273.42 534.34,272.25 L564.54,272.35 C564.58,273.52 564.74,280.27 563.57,292.28 C559.62,332.99 520.69,367.7 479.43,363.23 C456.91,360.79 436.73,349.27 419.17,335.69 C404.55,324.37 400.88,321.84 389.68,312.07 C367.2,339.63 346.44,367.56 311.95,364.61 L311.94,364.62 Z M393.87,556.31 L374.29,556.31 L374.29,443.68 L393.87,443.68 L393.87,556.31 Z M498.89,556.32 L480.68,556.32 L480.68,542.66 C475.98,550.86 467.17,558.29 452.3,558.29 C426.5,558.29 410.87,540.53 410.87,514.88 C410.87,489.23 426.5,471.47 452.3,471.47 C467.17,471.47 475.98,478.91 480.68,487.1 L480.68,473.29 L498.89,473.29 L498.89,556.31 L498.89,556.32 Z M562.82,558.29 C549.77,558.29 540.21,553.13 534.44,544.48 L534.44,556.32 L516.23,556.32 L516.23,443.29 L534.44,443.29 L534.44,485.14 C540.21,476.64 549.77,471.48 562.82,471.48 C584.98,471.48 600.46,487.57 600.46,514.88 C600.46,542.19 584.98,558.29 562.82,558.29 L562.82,558.29 Z" id="Shape"></path>
                <path d="M557.96,488.02 C543.69,488.02 534.43,498.34 534.43,515.19 C534.43,532.04 543.69,542.51 557.96,542.51 C572.23,542.51 581.33,531.13 581.33,515.19 C581.33,499.25 571.62,488.02 557.96,488.02 L557.96,488.02 Z" id="Path"></path>
            </g>
        </g>
    </g>
</svg>