<svg width="300" height="300" viewBox="0 0 300 300" fill="none" xmlns="http://www.w3.org/2000/svg">
<g clip-path="url(#clip0_486_2536)">
<path d="M177.709 104.675H91.631C90.5662 104.675 89.7031 105.537 89.7031 106.6V192.582C89.7031 193.646 90.5662 194.508 91.631 194.508H177.709C178.773 194.508 179.637 193.646 179.637 192.582V106.6C179.637 105.537 178.773 104.675 177.709 104.675Z" fill="#4545F7"/>
<path d="M299.692 141.638C299.692 141.638 299.692 141.619 299.692 141.6C299.692 141.6 299.692 141.59 299.692 141.581C297.754 107.409 283.17 75.1927 260.344 51.372C248.922 39.4616 235.418 29.6502 220.39 22.7852C205.353 15.9201 188.783 12.011 171.278 11.8954L1.87 11C0.877165 11.0385 0.0771134 11.8377 0.0289175 12.8294L0 18.6931H0.0192783V102.749C0.0192783 103.808 0.886804 104.675 1.94711 104.675H88.0249C89.0852 104.675 89.9528 103.808 89.9528 102.749V19.1745L171.221 19.6174C187.607 19.7233 203.078 23.3725 217.18 29.8043C238.319 39.452 256.363 55.387 269.444 75.0001C282.524 94.6036 290.64 117.866 291.999 142.072V142.091V142.12C292.202 144.979 292.298 147.829 292.298 150.66C292.298 185.361 277.676 217.703 254.301 241.389C242.608 253.232 228.747 262.889 213.459 269.6C198.172 276.301 181.477 280.057 164.078 280.085L89.9624 280.182V196.443C89.9624 195.384 89.0949 194.518 88.0346 194.518H1.94711C0.886804 194.518 0.0192783 195.384 0.0192783 196.443V280.307V286.142C0.057835 287.162 0.886804 287.99 1.90856 288.01H2.72789H2.84356L164.088 287.798C201.102 287.74 235.08 271.844 259.785 246.819C284.491 221.795 300 187.566 300.01 150.679C300.01 147.685 299.904 144.681 299.701 141.658L299.692 141.638Z" fill="#4545F7"/>
</g>
<defs>
<clipPath id="clip0_486_2536">
<rect width="300" height="300" fill="white"/>
</clipPath>
</defs>
</svg>
