<svg width="120" height="120" viewBox="0 0 120 120" fill="none" xmlns="http://www.w3.org/2000/svg">
<g clip-path="url(#clip0_1194_188)">
<path d="M66.7907 82.9174C63.1054 86.1806 57.4553 87.4917 54.7146 83.5671C52.2877 80.0942 55.0866 75.4994 58.5685 74.133C60.7134 73.2909 65.3346 72.4198 71.4497 77.1835C70.1244 79.2172 68.6159 81.2975 66.7878 82.9174M92.1114 44.799C93.4367 41.2444 95.0091 36.5011 98.0027 34.0421C99.6099 32.7222 103.176 32.1453 104.612 34.0566C106.109 36.0495 104.568 40.417 103.26 42.6371C101.232 46.081 98.1277 48.4089 94.6719 50.2124C93.0124 51.0778 91.2714 51.8907 89.484 52.6016C90.3036 49.9823 91.1523 47.3717 92.1114 44.8019M112.689 71.5166C112.668 71.8021 112.596 74.2204 112.206 76.0093C111.442 79.5231 108.82 82.8096 105.821 84.3888C102.255 86.2651 98.863 85.9417 95.3491 84.1091C90.6698 81.6675 86.6735 78.751 81.9883 74.4127C83.7874 70.4531 85.2174 66.3071 86.534 62.1436C91.5737 60.8325 96.4768 58.5365 100.54 56.0979C107.6 51.8557 113.628 44.0502 112.927 35.2745C112.25 26.7639 103.708 22.8772 96.3199 25.919C88.1558 29.2813 85.0633 40.5393 82.5551 48.307C81.8401 50.5213 81.1687 52.7647 80.4944 55.0053C73.3854 55.8036 65.6369 51.3458 60.8674 45.8071C60.8267 45.7605 60.7861 45.7226 60.7454 45.6789L55.1796 51.3546C55.2174 51.4012 55.2493 51.4478 55.29 51.4944C59.6729 56.5844 67.1482 61.4327 73.6818 62.8079C75.0507 63.0963 76.4603 63.242 77.8932 63.2682C77.0852 65.634 76.2046 67.9678 75.1931 70.2462C74.2573 69.7509 73.3098 69.2848 72.339 68.8565C64.4975 65.4126 54.1275 65.7156 49.1546 73.8358C44.048 82.1745 49.2912 93.2082 58.9143 94.0386C67.2557 94.7582 72.2751 87.9433 77.7101 81.2217C80.4189 83.6021 81.3053 84.2227 84.8424 86.9819C89.0858 90.2946 93.9686 93.1062 99.4123 93.7006C109.387 94.7903 118.801 86.3234 119.757 76.3939C120.039 73.4658 120.001 71.8196 119.99 71.5311L112.689 71.5078V71.5166Z" fill="#EBEBEB"/>
<path d="M36.82 35.2021H26.293V94.1031H36.82V35.2021Z" fill="#EBEBEB"/>
<path d="M26.2914 25.7324H0V35.2016H26.2914V25.7324Z" fill="#EBEBEB"/>
<path d="M63.2193 25.7324H36.8203V35.2016H63.2193V25.7324Z" fill="#EBEBEB"/>
</g>
<defs>
<clipPath id="clip0_1194_188">
<rect width="120" height="69.2063" fill="white" transform="translate(0 24.8965)"/>
</clipPath>
</defs>
</svg>
