<svg width="800" height="488" viewBox="0 0 800 488" fill="none" xmlns="http://www.w3.org/2000/svg">
<g opacity="0.5" clip-path="url(#clip0_691_2121)">
<path d="M798.615 234.044V253.013C798.393 255.01 797.312 256.952 795.316 258.116L402.149 485.753C400.125 486.918 397.603 486.946 395.579 485.753L4.68491 261.278C2.66142 260.113 1.58038 258.172 1.41406 256.147V255.593V237.094" fill="#0D0826"/>
<path d="M798.614 234.044V253.013C798.393 255.01 797.312 256.952 795.316 258.116L402.149 485.753C400.125 486.918 397.603 486.946 395.579 485.753L4.68491 261.278C2.66142 260.113 1.58038 258.172 1.41406 256.147V255.593V237.094" stroke="#4545F7" stroke-width="2" stroke-miterlimit="10"/>
<path d="M398.766 468.143V486.613" stroke="#4545F7" stroke-width="2" stroke-miterlimit="10"/>
<path d="M4.65625 231.381L397.546 2.27429C399.598 1.08175 402.12 1.08175 404.143 2.27429L795.315 228.22C799.695 230.743 799.695 237.094 795.315 239.618L402.148 467.255C400.124 468.42 397.602 468.448 395.578 467.255L4.68397 242.78C0.27664 240.256 0.27664 233.933 4.65625 231.381Z" fill="#0D0826" stroke="#4545F7" stroke-width="2" stroke-miterlimit="10"/>
</g>
<defs>
<clipPath id="clip0_691_2121">
<rect width="800" height="488" fill="white"/>
</clipPath>
</defs>
</svg>
