<svg width="220" height="68" viewBox="0 0 220 68" fill="none" xmlns="http://www.w3.org/2000/svg">
<g clip-path="url(#clip0_1063_467)">
<path d="M181.16 39.1159V32.001H182.651V37.817H186.328V39.1179H181.16V39.1159Z" fill="#EBEBEB"/>
<path d="M192.588 39.1159H187.375V32.001H192.588V33.3019H188.866V34.7945H192.297V36.0602H188.866V37.817H192.588V39.1179V39.1159Z" fill="#EBEBEB"/>
<path d="M196.863 39.2217C196.17 39.2217 195.559 39.0672 195.033 38.7601C194.506 38.4529 194.094 38.0245 193.797 37.4728C193.501 36.9212 193.352 36.2873 193.352 35.5655C193.352 34.8436 193.505 34.1843 193.811 33.6327C194.118 33.083 194.546 32.6545 195.1 32.3494C195.651 32.0442 196.296 31.8936 197.03 31.8936C197.623 31.8936 198.148 31.9953 198.6 32.1968C199.051 32.3983 199.424 32.6878 199.715 33.0614C200.006 33.4371 200.19 33.885 200.267 34.4054H198.706C198.641 34.0239 198.462 33.7305 198.167 33.5231C197.873 33.3158 197.494 33.2121 197.03 33.2121C196.567 33.2121 196.205 33.3079 195.879 33.4977C195.553 33.6875 195.3 33.9613 195.121 34.3193C194.942 34.6773 194.852 35.096 194.852 35.5753C194.852 36.0545 194.942 36.4927 195.125 36.8547C195.308 37.2146 195.563 37.4924 195.893 37.69C196.223 37.8856 196.61 37.9834 197.058 37.9834C197.388 37.9834 197.684 37.9306 197.949 37.825C198.215 37.7193 198.423 37.5726 198.576 37.3868C198.729 37.199 198.806 36.9877 198.806 36.7549V36.483H196.928V35.3327H199.169C199.534 35.3327 199.809 35.4207 199.994 35.5968C200.179 35.7728 200.271 36.033 200.271 36.3793V39.12H198.894V38.2945H198.851C198.686 38.5997 198.435 38.8305 198.093 38.989C197.751 39.1474 197.343 39.2257 196.867 39.2257L196.863 39.2217Z" fill="#EBEBEB"/>
<path d="M200.791 39.1159L203.816 32.001H205.35L208.339 39.1159H206.805L206.072 37.3768H203.02L202.27 39.1159H200.789H200.791ZM203.49 36.1287H205.668L204.601 33.564H204.558L203.492 36.1287H203.49Z" fill="#EBEBEB"/>
<path d="M209.113 39.1159V32.001H210.604V37.817H214.283V39.1179H209.115L209.113 39.1159Z" fill="#EBEBEB"/>
<path d="M181.16 48.9812V41.8643H183.975C184.75 41.8643 185.42 42.0071 185.986 42.2946C186.55 42.5822 186.986 42.9911 187.29 43.5251C187.594 44.0592 187.75 44.6911 187.75 45.4227C187.75 46.1544 187.594 46.7784 187.286 47.3105C186.978 47.8426 186.542 48.2554 185.976 48.5449C185.41 48.8345 184.745 48.9792 183.975 48.9792H181.16V48.9812ZM182.651 47.7155H183.975C184.715 47.7155 185.279 47.5061 185.664 47.0875C186.049 46.6689 186.241 46.1133 186.241 45.4227C186.241 44.7322 186.049 44.1687 185.664 43.754C185.279 43.3373 184.715 43.13 183.975 43.13H182.651V47.7155Z" fill="#EBEBEB"/>
<path d="M194.01 48.9812H188.797V41.8643H194.01V43.1652H190.288V44.6578H193.719V45.9235H190.288V47.6803H194.01V48.9812Z" fill="#EBEBEB"/>
<path d="M198.12 49.087C197.161 49.087 196.397 48.8777 195.826 48.459C195.256 48.0404 194.944 47.4594 194.891 46.716H196.425C196.478 47.1014 196.652 47.3929 196.949 47.5904C197.246 47.7861 197.656 47.8839 198.178 47.8839C198.644 47.8839 198.994 47.8095 199.227 47.6589C199.463 47.5102 199.581 47.2892 199.581 46.9957C199.581 46.7668 199.506 46.5849 199.357 46.4499C199.208 46.3149 198.964 46.2132 198.628 46.1428L197.155 45.8435C196.491 45.7026 195.994 45.4698 195.664 45.1451C195.335 44.8204 195.17 44.3978 195.17 43.8755C195.17 43.2143 195.421 42.6958 195.924 42.3202C196.427 41.9446 197.11 41.7568 197.974 41.7568C198.838 41.7568 199.555 41.9525 200.091 42.3457C200.626 42.7389 200.926 43.2847 200.991 43.9889H199.457C199.286 43.2749 198.766 42.9169 197.896 42.9169C197.501 42.9169 197.193 42.9873 196.971 43.1282C196.747 43.269 196.635 43.4705 196.635 43.7346C196.635 44.1376 196.925 44.3998 197.509 44.5171L199.043 44.8341C199.736 44.9749 200.243 45.2097 200.565 45.5403C200.885 45.8709 201.046 46.3169 201.046 46.8803C201.046 47.5767 200.793 48.1186 200.284 48.506C199.775 48.8933 199.054 49.085 198.12 49.085V49.087Z" fill="#EBEBEB"/>
<path d="M202.281 48.9812V41.8643H203.78V48.9812H202.281Z" fill="#EBEBEB"/>
<path d="M208.586 49.087C207.893 49.087 207.282 48.9324 206.755 48.6253C206.229 48.3182 205.817 47.8878 205.52 47.3381C205.223 46.7884 205.074 46.1526 205.074 45.4327C205.074 44.7128 205.227 44.0515 205.534 43.4999C205.84 42.9482 206.268 42.5217 206.822 42.2166C207.374 41.9114 208.018 41.7588 208.753 41.7588C209.346 41.7588 209.87 41.8605 210.322 42.062C210.774 42.2635 211.147 42.553 211.438 42.9267C211.729 43.3023 211.913 43.7503 211.99 44.2706H210.428C210.363 43.8892 210.185 43.5957 209.89 43.3884C209.596 43.181 209.216 43.0773 208.753 43.0773C208.289 43.0773 207.928 43.1732 207.602 43.3629C207.276 43.5527 207.023 43.8266 206.844 44.1846C206.665 44.5426 206.575 44.9612 206.575 45.4405C206.575 45.9198 206.665 46.358 206.848 46.7179C207.03 47.0779 207.286 47.3557 207.616 47.5533C207.946 47.7489 208.333 47.8467 208.78 47.8467C209.11 47.8467 209.407 47.7939 209.672 47.6882C209.937 47.5826 210.145 47.4359 210.299 47.2481C210.452 47.0603 210.528 46.849 210.528 46.6162V46.3443H208.651V45.194H210.892C211.257 45.194 211.532 45.282 211.717 45.4581C211.901 45.6342 211.994 45.8943 211.994 46.2406V48.9813H210.617V48.1558H210.574C210.409 48.461 210.157 48.6918 209.815 48.8503C209.474 49.0087 209.065 49.087 208.59 49.087H208.586Z" fill="#EBEBEB"/>
<path d="M220.001 48.9812H218.404L214.69 44.0435H214.654V48.9812H213.227V41.8643H214.77L218.537 46.9075H218.573V41.8643H220.001V48.9812Z" fill="#EBEBEB"/>
<path d="M181.16 58.8474V51.7305H182.651V57.5465H186.328V58.8474H181.16Z" fill="#EBEBEB"/>
<path d="M186.678 58.8474L189.702 51.7305H191.236L194.226 58.8474H192.692L191.959 57.1083H188.907L188.157 58.8474H186.676H186.678ZM189.376 55.8602H191.555L190.488 53.2955H190.445L189.378 55.8602H189.376Z" fill="#EBEBEB"/>
<path d="M194.906 58.8474V51.7305H198.575C199.005 51.7305 199.38 51.8068 199.704 51.9594C200.029 52.1119 200.28 52.3232 200.463 52.5971C200.645 52.869 200.736 53.184 200.736 53.542C200.736 53.9 200.641 54.2032 200.453 54.4516C200.264 54.7001 200.009 54.8859 199.685 55.0092V55.0444C199.962 55.1148 200.203 55.2322 200.414 55.3965C200.624 55.5609 200.787 55.7623 200.908 56.003C201.028 56.2436 201.089 56.5155 201.089 56.8207C201.089 57.2237 200.989 57.5797 200.789 57.8829C200.588 58.1862 200.313 58.4248 199.964 58.595C199.614 58.7652 199.204 58.8493 198.734 58.8493H194.906V58.8474ZM196.397 54.569H198.363C198.646 54.569 198.862 54.5025 199.011 54.3714C199.16 54.2404 199.237 54.0486 199.237 53.7963C199.237 53.5439 199.162 53.3542 199.011 53.2251C198.86 53.0959 198.646 53.0314 198.363 53.0314H196.397V54.569ZM196.397 57.5465H198.469C198.828 57.5465 199.103 57.4682 199.298 57.3137C199.492 57.1591 199.589 56.9342 199.589 56.6407C199.589 56.3473 199.492 56.1262 199.302 55.9736C199.111 55.821 198.836 55.7447 198.477 55.7447H196.395V57.5465H196.397Z" fill="#EBEBEB"/>
<path d="M179.428 0H170.725C170.508 0 170.332 0.175171 170.332 0.391254V9.05949C170.332 9.27558 170.508 9.45075 170.725 9.45075H179.428C179.645 9.45075 179.82 9.27558 179.82 9.05949V0.391254C179.82 0.175171 179.645 0 179.428 0Z" fill="#4545F7"/>
<path d="M188.916 9.45117H180.213C179.996 9.45117 179.82 9.62634 179.82 9.84243V18.5107C179.82 18.7268 179.996 18.9019 180.213 18.9019H188.916C189.133 18.9019 189.309 18.7268 189.309 18.5107V9.84243C189.309 9.62634 189.133 9.45117 188.916 9.45117Z" fill="#4545F7"/>
<path d="M179.428 18.9014H170.725C170.508 18.9014 170.332 19.0765 170.332 19.2926V27.9609C170.332 28.1769 170.508 28.3521 170.725 28.3521H179.428C179.645 28.3521 179.82 28.1769 179.82 27.9609V19.2926C179.82 19.0765 179.645 18.9014 179.428 18.9014Z" fill="#4545F7"/>
<path d="M15.2353 21.6191H0V59.025H15.2353C26.2872 59.025 34.7091 52.1859 34.7091 40.3231C34.7091 28.4602 26.2872 21.6211 15.2353 21.6211V21.6191ZM15.2353 52.2915H7.29458V28.3526H15.2353C22.3708 28.3526 27.2535 32.5743 27.2535 40.3231C27.2535 48.0718 22.3708 52.2935 15.2353 52.2935V52.2915Z" fill="#EBEBEB"/>
<path d="M99.5723 50.5269H99.4643L92.7039 31.5041H78.0048V23.4893H70.9773V31.5041H65.9336V37.3827H70.8163V52.1838C70.8163 57.0471 73.8213 59.023 78.2739 59.023H84.991V52.984H79.8844C78.4349 52.984 78.0068 52.4499 78.0068 51.1666V37.3788H87.6406L95.6559 59.021L95.4949 59.4494C94.7976 61.2668 93.6172 61.9613 90.5061 61.9613H88.0393V68.0003H91.5255C98.4469 68.0003 100.7 65.9697 103.061 59.6118L113.629 31.5041H106.386L99.5723 50.5269Z" fill="#EBEBEB"/>
<path d="M128.287 53.3064C123.46 53.3064 120.991 49.9925 120.991 45.2368C120.991 40.4811 123.458 37.222 128.287 37.222C130.931 37.222 133.567 37.8108 134.586 40.9624H141.828C140.594 33.908 134.58 30.9697 128.287 30.9697C119.919 30.9697 113.855 36.5803 113.855 45.2368C113.855 53.8933 119.919 59.5587 128.287 59.5587C135.692 59.5587 140.95 55.4446 142.183 48.3903H134.942C133.922 51.5438 131.992 53.3064 128.289 53.3064H128.287Z" fill="#EBEBEB"/>
<path d="M51.0458 30.9697C44.0714 30.9697 38.8685 34.2289 38.5995 40.9624H45.6269C45.788 37.8089 47.5046 36.4199 51.0988 36.4199C54.479 36.4199 56.4097 37.9164 56.4097 40.8548V41.9229L49.2212 42.9382C42.1937 43.9535 38.2773 46.5182 38.2773 51.5947C38.2773 56.6712 42.5688 59.5567 48.4179 59.5567C48.6928 59.5567 48.96 59.5509 49.2212 59.5391C49.3233 59.5352 49.4176 59.5254 49.5177 59.5176C49.6729 59.5078 49.832 59.498 49.9813 59.4843C50.103 59.4726 50.2189 59.455 50.3368 59.4413C50.4585 59.4257 50.5823 59.4139 50.7001 59.3963C50.8298 59.3767 50.9535 59.3513 51.0812 59.3298C51.1813 59.3122 51.2834 59.2965 51.3797 59.275C51.5132 59.2476 51.6429 59.2144 51.7725 59.1831C51.855 59.1635 51.9395 59.1459 52.02 59.1224C52.1575 59.0853 52.2871 59.0442 52.4187 59.0031C52.4855 58.9816 52.5562 58.962 52.621 58.9405C52.7585 58.8936 52.8901 58.8427 53.0217 58.7918C53.0767 58.7703 53.1336 58.7507 53.1866 58.7292C53.3241 58.6725 53.4557 58.6118 53.5853 58.5492C53.6286 58.5297 53.6737 58.5101 53.7169 58.4886C53.8525 58.4221 53.9821 58.3517 54.1098 58.2793C54.1431 58.2597 54.1785 58.2421 54.2119 58.2225C54.3454 58.1443 54.4731 58.0641 54.5988 57.98C54.6243 57.9624 54.6499 57.9467 54.6754 57.9311C54.805 57.843 54.9307 57.7511 55.0525 57.6572C55.0702 57.6435 55.0898 57.6298 55.1075 57.6161C55.2332 57.5183 55.353 57.4146 55.4709 57.309C55.4826 57.2972 55.4964 57.2874 55.5082 57.2757C55.6299 57.1662 55.7458 57.0527 55.8578 56.9373C55.8656 56.9294 55.8735 56.9216 55.8814 56.9138C55.9972 56.7945 56.1072 56.6712 56.2152 56.546C56.2192 56.5402 56.2231 56.5362 56.229 56.5304C56.339 56.4013 56.4431 56.2702 56.5432 56.1333C56.5432 56.1313 56.5472 56.1293 56.5491 56.1254C56.6513 55.9885 56.7495 55.8476 56.8437 55.7029V59.1674H63.3468V59.0207L63.4411 51.2191V40.6924C63.4411 34.2269 58.0752 30.9678 51.0478 30.9678L51.0458 30.9697ZM45.4659 51.3815C45.4659 49.6189 46.5932 48.4431 50.0795 47.9091L56.4097 46.9466V48.8696C56.4097 52.1835 54.1569 54.4274 49.8654 54.4274C47.2375 54.4274 45.4659 53.4121 45.4659 51.3815Z" fill="#EBEBEB"/>
<path d="M157.972 30.9697C150.997 30.9697 145.794 34.2289 145.525 40.9624H152.553C152.714 37.8089 154.43 36.4199 158.025 36.4199C161.405 36.4199 163.335 37.9164 163.335 40.8548V41.9229L156.147 42.9382C149.119 43.9535 145.203 46.5182 145.203 51.5947C145.203 56.6712 149.495 59.5567 155.344 59.5567C159.698 59.5567 162.253 58.021 163.77 55.7048V59.1694H170.273V59.0227L170.367 51.221V40.6944C170.367 34.2289 165.001 30.9697 157.974 30.9697H157.972ZM163.335 48.8696C163.335 52.1835 161.083 54.4274 156.791 54.4274C154.163 54.4274 152.392 53.4121 152.392 51.3815C152.392 49.6189 153.519 48.4431 157.005 47.9091L163.335 46.9466V48.8696Z" fill="#EBEBEB"/>
</g>
<defs>
<clipPath id="clip0_1063_467">
<rect width="220" height="68" fill="white"/>
</clipPath>
</defs>
</svg>
