<svg width="1000" height="310" viewBox="0 0 1000 310" fill="none" xmlns="http://www.w3.org/2000/svg">
<g clip-path="url(#clip0_486_2535)">
<path d="M823.449 178.321V145.885H830.225V172.399H846.938V178.33H823.449V178.321Z" fill="#0D0826"/>
<path d="M875.401 178.321H851.707V145.885H875.401V151.815H858.483V158.62H874.08V164.39H858.483V172.399H875.401V178.33V178.321Z" fill="#0D0826"/>
<path d="M894.834 178.802C891.682 178.802 888.906 178.098 886.513 176.698C884.121 175.298 882.246 173.344 880.898 170.83C879.55 168.315 878.871 165.425 878.871 162.134C878.871 158.843 879.567 155.838 880.96 153.323C882.353 150.817 884.299 148.864 886.817 147.472C889.325 146.081 892.254 145.395 895.592 145.395C898.289 145.395 900.672 145.858 902.726 146.777C904.779 147.695 906.475 149.015 907.797 150.719C909.118 152.431 909.957 154.473 910.305 156.846H903.208C902.913 155.107 902.101 153.769 900.762 152.823C899.422 151.878 897.699 151.405 895.592 151.405C893.486 151.405 891.843 151.842 890.361 152.708C888.879 153.573 887.727 154.821 886.915 156.453C886.102 158.085 885.692 159.994 885.692 162.179C885.692 164.364 886.102 166.361 886.933 168.011C887.763 169.652 888.924 170.919 890.423 171.819C891.923 172.711 893.682 173.157 895.717 173.157C897.217 173.157 898.565 172.916 899.771 172.435C900.976 171.953 901.922 171.284 902.619 170.437C903.315 169.581 903.663 168.618 903.663 167.557V166.317H895.128V161.073H905.315C906.975 161.073 908.225 161.474 909.064 162.277C909.903 163.08 910.323 164.266 910.323 165.844V178.339H904.065V174.575H903.868C903.118 175.966 901.976 177.019 900.422 177.741C898.869 178.464 897.012 178.82 894.852 178.82L894.834 178.802Z" fill="#0D0826"/>
<path d="M912.681 178.321L926.429 145.885H933.402L946.99 178.321H940.017L936.687 170.392H922.814L919.403 178.321H912.672H912.681ZM924.947 164.702H934.848L930 153.01H929.804L924.956 164.702H924.947Z" fill="#0D0826"/>
<path d="M950.508 178.321V145.885H957.284V172.399H974.005V178.33H950.517L950.508 178.321Z" fill="#0D0826"/>
<path d="M823.449 223.296V190.852H836.243C839.769 190.852 842.813 191.503 845.384 192.814C847.947 194.125 849.929 195.989 851.312 198.423C852.696 200.858 853.401 203.739 853.401 207.074C853.401 210.409 852.696 213.254 851.294 215.68C849.893 218.106 847.911 219.988 845.34 221.308C842.769 222.627 839.742 223.287 836.243 223.287H823.449V223.296ZM830.225 217.526H836.243C839.608 217.526 842.17 216.572 843.92 214.663C845.67 212.755 846.545 210.222 846.545 207.074C846.545 203.926 845.67 201.357 843.92 199.467C842.17 197.567 839.608 196.622 836.243 196.622H830.225V217.526Z" fill="#0D0826"/>
<path d="M881.862 223.296H858.168V190.852H881.862V196.782H864.944V203.587H880.541V209.357H864.944V217.366H881.862V223.296Z" fill="#0D0826"/>
<path d="M900.54 223.777C896.184 223.777 892.711 222.823 890.113 220.914C887.524 219.006 886.104 216.357 885.863 212.968H892.836C893.077 214.725 893.871 216.054 895.219 216.955C896.567 217.847 898.433 218.292 900.808 218.292C902.924 218.292 904.513 217.954 905.575 217.267C906.647 216.589 907.182 215.581 907.182 214.244C907.182 213.2 906.843 212.371 906.165 211.755C905.486 211.14 904.379 210.676 902.853 210.355L896.157 208.991C893.139 208.349 890.881 207.287 889.381 205.807C887.881 204.326 887.131 202.4 887.131 200.019C887.131 197.004 888.274 194.641 890.559 192.929C892.845 191.217 895.951 190.36 899.88 190.36C903.808 190.36 907.066 191.252 909.504 193.045C911.932 194.837 913.298 197.326 913.592 200.536H906.62C905.843 197.281 903.477 195.649 899.523 195.649C897.728 195.649 896.326 195.97 895.318 196.612C894.3 197.254 893.791 198.173 893.791 199.377C893.791 201.214 895.112 202.409 897.764 202.944L904.736 204.389C907.888 205.031 910.191 206.101 911.655 207.608C913.11 209.116 913.842 211.149 913.842 213.717C913.842 216.892 912.691 219.363 910.378 221.128C908.066 222.894 904.79 223.768 900.54 223.768V223.777Z" fill="#0D0826"/>
<path d="M919.449 223.296V190.852H926.261V223.296H919.449Z" fill="#0D0826"/>
<path d="M948.107 223.777C944.956 223.777 942.179 223.073 939.787 221.672C937.394 220.272 935.519 218.31 934.171 215.804C932.823 213.298 932.145 210.4 932.145 207.118C932.145 203.836 932.841 200.821 934.234 198.306C935.626 195.791 937.573 193.847 940.09 192.456C942.599 191.065 945.527 190.369 948.866 190.369C951.562 190.369 953.946 190.833 955.999 191.751C958.052 192.67 959.749 193.99 961.07 195.693C962.391 197.406 963.23 199.448 963.579 201.82H956.481C956.187 200.081 955.374 198.743 954.035 197.798C952.696 196.853 950.973 196.38 948.866 196.38C946.759 196.38 945.116 196.817 943.634 197.682C942.152 198.547 941.001 199.796 940.188 201.428C939.376 203.06 938.965 204.968 938.965 207.153C938.965 209.338 939.376 211.336 940.206 212.977C941.036 214.618 942.197 215.884 943.697 216.785C945.197 217.677 946.955 218.123 948.991 218.123C950.491 218.123 951.839 217.882 953.044 217.4C954.249 216.919 955.196 216.25 955.892 215.394C956.588 214.538 956.937 213.575 956.937 212.513V211.274H948.402V206.03H958.588C960.249 206.03 961.499 206.431 962.338 207.234C963.177 208.036 963.597 209.222 963.597 210.801V223.295H957.338V219.532H957.142C956.392 220.923 955.249 221.976 953.696 222.698C952.142 223.42 950.285 223.777 948.125 223.777H948.107Z" fill="#0D0826"/>
<path d="M1000 223.296H992.744L975.862 200.787H975.701V223.296H969.211V190.852H976.228L993.351 213.843H993.512V190.852H1000V223.296Z" fill="#0D0826"/>
<path d="M823.449 268.271V235.826H830.225V262.34H846.938V268.271H823.449Z" fill="#0D0826"/>
<path d="M848.536 268.271L862.285 235.826H869.257L882.845 268.271H875.873L872.543 260.343H858.669L855.259 268.271H848.527H848.536ZM860.803 254.653H870.704L865.856 242.961H865.659L860.812 254.653H860.803Z" fill="#0D0826"/>
<path d="M885.926 268.271V235.826H902.603C904.558 235.826 906.263 236.174 907.736 236.87C909.209 237.565 910.352 238.528 911.182 239.777C912.012 241.017 912.423 242.452 912.423 244.085C912.423 245.717 911.994 247.099 911.137 248.232C910.28 249.364 909.12 250.211 907.647 250.773V250.934C908.905 251.255 910.004 251.79 910.959 252.539C911.914 253.288 912.655 254.207 913.209 255.304C913.753 256.401 914.03 257.64 914.03 259.032C914.03 260.869 913.575 262.492 912.664 263.874C911.753 265.257 910.504 266.345 908.914 267.12C907.325 267.896 905.459 268.28 903.326 268.28H885.926V268.271ZM892.702 248.767H901.638C902.924 248.767 903.906 248.463 904.584 247.866C905.263 247.268 905.611 246.394 905.611 245.244C905.611 244.093 905.272 243.228 904.584 242.64C903.897 242.051 902.924 241.757 901.638 241.757H892.702V248.767ZM892.702 262.34H902.12C903.754 262.34 905.004 261.984 905.888 261.279C906.772 260.574 907.209 259.549 907.209 258.211C907.209 256.873 906.772 255.866 905.906 255.17C905.04 254.474 903.79 254.127 902.156 254.127H892.693V262.34H892.702Z" fill="#0D0826"/>
<path d="M815.582 0H776.024C775.038 0 774.238 0.798571 774.238 1.78366V41.3006C774.238 42.2857 775.038 43.0843 776.024 43.0843H815.582C816.568 43.0843 817.368 42.2857 817.368 41.3006V1.78366C817.368 0.798571 816.568 0 815.582 0Z" fill="#4545F7"/>
<path d="M858.711 43.084H819.153C818.167 43.084 817.367 43.8826 817.367 44.8676V84.3846C817.367 85.3697 818.167 86.1683 819.153 86.1683H858.711C859.697 86.1683 860.496 85.3697 860.496 84.3846V44.8676C860.496 43.8826 859.697 43.084 858.711 43.084Z" fill="#4545F7"/>
<path d="M815.582 86.1689H776.024C775.038 86.1689 774.238 86.9675 774.238 87.9526V127.47C774.238 128.455 775.038 129.253 776.024 129.253H815.582C816.568 129.253 817.368 128.455 817.368 127.47V87.9526C817.368 86.9675 816.568 86.1689 815.582 86.1689Z" fill="#4545F7"/>
<path d="M69.2515 98.5557H0V269.082H69.2515C119.487 269.082 157.769 237.904 157.769 183.823C157.769 129.743 119.487 98.5646 69.2515 98.5646V98.5557ZM69.2515 238.386H33.1572V129.252H69.2515C101.686 129.252 123.88 148.498 123.88 183.823C123.88 219.149 101.686 238.395 69.2515 238.395V238.386Z" fill="#0D0826"/>
<path d="M452.595 230.342H452.104L421.375 143.62H354.561V107.082H322.618V143.62H299.691V170.42H321.885V237.896C321.885 260.066 335.545 269.074 355.784 269.074H386.316V241.543H363.104C356.516 241.543 354.569 239.108 354.569 233.258V170.402H398.359L434.793 269.065L434.061 271.018C430.892 279.303 425.526 282.469 411.385 282.469H400.172V310H416.018C447.479 310 457.719 300.743 468.45 271.758L516.49 143.62H483.565L452.595 230.342Z" fill="#0D0826"/>
<path d="M583.124 243.015C561.179 243.015 549.957 227.907 549.957 206.227C549.957 184.546 561.171 169.688 583.124 169.688C595.14 169.688 607.121 172.373 611.754 186.74H644.671C639.064 154.581 611.728 141.186 583.124 141.186C545.083 141.186 517.523 166.763 517.523 206.227C517.523 245.69 545.083 271.518 583.124 271.518C616.781 271.518 640.68 252.762 646.286 220.603H613.37C608.737 234.979 599.961 243.015 583.132 243.015H583.124Z" fill="#0D0826"/>
<path d="M232.019 141.185C200.317 141.185 176.668 156.043 175.445 186.739H207.388C208.12 172.363 215.922 166.031 232.26 166.031C247.624 166.031 256.4 172.854 256.4 186.249V191.118L223.725 195.747C191.782 200.375 173.98 212.067 173.98 235.21C173.98 258.353 193.487 271.508 220.074 271.508C221.324 271.508 222.538 271.481 223.725 271.428C224.189 271.41 224.618 271.365 225.073 271.329C225.778 271.285 226.502 271.24 227.18 271.178C227.734 271.124 228.26 271.044 228.796 270.982C229.35 270.91 229.912 270.857 230.448 270.776C231.037 270.687 231.599 270.571 232.18 270.473C232.635 270.393 233.099 270.322 233.537 270.224C234.144 270.099 234.733 269.947 235.322 269.804C235.697 269.715 236.081 269.635 236.447 269.528C237.072 269.358 237.661 269.171 238.259 268.984C238.563 268.886 238.884 268.797 239.179 268.699C239.804 268.484 240.402 268.253 241 268.021C241.25 267.923 241.509 267.833 241.75 267.735C242.375 267.477 242.973 267.2 243.562 266.915C243.759 266.826 243.964 266.736 244.16 266.638C244.776 266.335 245.366 266.014 245.946 265.684C246.098 265.595 246.258 265.515 246.41 265.425C247.017 265.069 247.598 264.703 248.169 264.32C248.285 264.239 248.401 264.168 248.517 264.097C249.106 263.695 249.678 263.276 250.231 262.848C250.312 262.786 250.401 262.723 250.481 262.661C251.053 262.215 251.597 261.742 252.133 261.261C252.186 261.207 252.249 261.163 252.302 261.109C252.856 260.61 253.383 260.092 253.892 259.566C253.927 259.53 253.963 259.495 253.999 259.459C254.525 258.915 255.025 258.353 255.516 257.782C255.534 257.756 255.552 257.738 255.579 257.711C256.079 257.123 256.552 256.525 257.007 255.901C257.007 255.892 257.025 255.883 257.034 255.865C257.498 255.241 257.945 254.599 258.373 253.939V269.733H287.933V269.064L288.361 233.498V185.509C288.361 156.034 263.971 141.176 232.028 141.176L232.019 141.185ZM206.656 234.238C206.656 226.203 211.78 220.843 227.627 218.408L256.4 214.02V222.787C256.4 237.895 246.16 248.124 226.653 248.124C214.708 248.124 206.656 243.495 206.656 234.238Z" fill="#0D0826"/>
<path d="M718.058 141.186C686.356 141.186 662.707 156.043 661.484 186.74H693.427C694.159 172.364 701.961 166.032 718.299 166.032C733.663 166.032 742.439 172.854 742.439 186.25V191.119L709.764 195.748C677.821 200.376 660.02 212.068 660.02 235.211C660.02 258.354 679.526 271.509 706.113 271.509C725.905 271.509 737.52 264.508 744.412 253.948V269.743H773.972V269.074L774.4 233.508V185.518C774.4 156.043 750.01 141.186 718.067 141.186H718.058ZM742.439 222.788C742.439 237.896 732.199 248.125 712.692 248.125C700.747 248.125 692.695 243.496 692.695 234.239C692.695 226.204 697.819 220.844 713.666 218.409L742.439 214.021V222.788Z" fill="#0D0826"/>
</g>
<defs>
<clipPath id="clip0_486_2535">
<rect width="1000" height="310" fill="white"/>
</clipPath>
</defs>
</svg>
