<svg width="170" height="170" viewBox="0 0 170 170" fill="none" xmlns="http://www.w3.org/2000/svg">
<path d="M22.5251 22.5261C23.892 21.1593 26.1075 21.1593 27.4743 22.5261L142.09 137.14V63.7009C142.09 61.7679 143.657 60.2009 145.59 60.2009C147.522 60.2011 149.09 61.768 149.09 63.7009V145.521C149.09 145.97 149.003 146.399 148.849 146.794C148.679 147.25 148.412 147.679 148.045 148.046C147.524 148.567 146.879 148.888 146.205 149.011C145.968 149.062 145.722 149.091 145.469 149.091H63.6599C61.727 149.091 60.16 147.523 60.1599 145.591C60.1599 143.658 61.7269 142.091 63.6599 142.091H137.139L22.5251 27.4753C21.1583 26.1085 21.1583 23.8929 22.5251 22.5261Z" fill="#4545F7"/>
</svg>
