<svg width="170" height="170" viewBox="0 0 170 170" fill="none" xmlns="http://www.w3.org/2000/svg">
<path d="M143.095 22.5261C144.461 21.1592 146.678 21.1593 148.045 22.5261C149.411 23.8929 149.411 26.1086 148.045 27.4753L90.2332 85.2908L148.045 143.106C149.411 144.473 149.411 146.689 148.045 148.056C146.678 149.422 144.461 149.422 143.095 148.056L85.284 90.24L27.4743 148.056C26.1076 149.422 23.892 149.422 22.5251 148.056C21.1583 146.689 21.1583 144.473 22.5251 143.106L80.3347 85.2908L22.5251 27.4753C21.1583 26.1085 21.1583 23.8929 22.5251 22.5261C23.892 21.1594 26.1075 21.1593 27.4743 22.5261L85.284 80.3406L143.095 22.5261Z" fill="#4545F7"/>
</svg>
