<svg width="40" height="40" viewBox="0 0 40 40" fill="none" xmlns="http://www.w3.org/2000/svg">
<path d="M33.5448 5.17569C33.9353 4.78519 34.5683 4.78529 34.9589 5.17569C35.3493 5.56621 35.3494 6.19924 34.9589 6.58975L21.4804 20.0683L34.9589 33.5478C35.3493 33.9383 35.3494 34.5713 34.9589 34.9618C34.5684 35.352 33.9353 35.3521 33.5448 34.9618L20.0673 21.4823L6.58975 34.9618C6.1993 35.3521 5.56619 35.3521 5.17569 34.9618C4.78519 34.5714 4.78531 33.9383 5.17569 33.5478L18.6532 20.0683L5.17569 6.58975C4.78519 6.19922 4.78518 5.5662 5.17569 5.17569C5.56622 4.78519 6.19924 4.78518 6.58975 5.17569L20.0673 18.6542L33.5448 5.17569Z" fill="#4545F7"/>
</svg>
