<svg width="170" height="170" viewBox="0 0 170 170" fill="none" xmlns="http://www.w3.org/2000/svg">
<path d="M108.189 28.5261C109.556 27.1593 111.773 27.1593 113.14 28.5261L167.42 82.8064C167.604 82.9902 167.762 83.1897 167.896 83.4001C168.278 83.9604 168.5 84.6373 168.5 85.3659C168.5 86.0545 168.299 86.6957 167.956 87.237C167.815 87.4682 167.645 87.6874 167.445 87.8874L113.165 142.169C111.798 143.536 109.582 143.536 108.215 142.169C106.848 140.802 106.848 138.585 108.215 137.218L156.568 88.8659H5C3.067 88.8659 1.5 87.2989 1.5 85.3659C1.50016 83.4331 3.0671 81.8659 5 81.8659H156.58L108.189 33.4753C106.823 32.1085 106.823 29.8929 108.189 28.5261Z" fill="#4545F7"/>
</svg>
