<svg width="170" height="170" viewBox="0 0 170 170" fill="none" xmlns="http://www.w3.org/2000/svg">
<path fill-rule="evenodd" clip-rule="evenodd" d="M55.0908 27.0029C57.7615 24.3323 62.0919 24.3325 64.7627 27.0029C67.4335 29.6737 67.4335 34.0049 64.7627 36.6757L23.3223 78.1161H163.161C166.938 78.1163 170 81.1782 170 84.955C170 88.732 166.938 91.7947 163.161 91.7949H23.334L64.7354 133.197C67.4061 135.868 67.4061 140.198 64.7354 142.869C62.0645 145.54 57.7343 145.54 55.0635 142.869L2.03027 89.8368C1.59691 89.4035 1.2351 88.9255 0.942383 88.4189C0.344378 87.4029 2.45247e-05 86.2192 0 84.955C8.4194e-05 83.5388 0.430706 82.2231 1.16797 81.1318C1.42151 80.7445 1.71738 80.3763 2.05762 80.0361L55.0908 27.0029Z" fill="#4545F7"/>
</svg>
