<svg width="170" height="170" viewBox="0 0 170 170" fill="none" xmlns="http://www.w3.org/2000/svg">
<path d="M56.8604 28.5249C58.2272 27.1585 60.4438 27.1583 61.8105 28.5249C63.1771 29.8916 63.1769 32.1073 61.8105 33.4741L13.418 81.8667H165C166.933 81.8667 168.5 83.4337 168.5 85.3667C168.5 87.2996 166.933 88.8667 165 88.8667H13.4346L61.7871 137.218C63.1538 138.585 63.1536 140.802 61.7871 142.169C60.4203 143.535 58.2037 143.535 56.8369 142.169L2.55664 87.8872C2.38346 87.7141 2.23183 87.5276 2.10254 87.3306C1.72222 86.7707 1.50005 86.0946 1.5 85.3667C1.5 84.6608 1.7089 84.0034 2.06836 83.4537C2.20968 83.2231 2.38044 83.0049 2.58008 82.8052L56.8604 28.5249Z" fill="#4545F7"/>
</svg>
