<svg width="170" height="170" viewBox="0 0 170 170" fill="none" xmlns="http://www.w3.org/2000/svg">
<path d="M105.239 27.0049C107.909 24.3318 112.24 24.3316 114.91 27.0049L167.944 80.0944C168.319 80.4701 168.64 80.8801 168.909 81.3122C169.598 82.3807 170 83.6527 170 85.019C170 86.3422 169.623 87.5765 168.973 88.6236C168.696 89.0796 168.363 89.5121 167.969 89.9064L114.935 142.995C112.265 145.668 107.934 145.668 105.263 142.995C102.593 140.321 102.593 135.987 105.263 133.313L146.666 91.8653H6.83908C3.06203 91.8653 0.000112794 88.8 0 85.019C0 81.2379 3.06196 78.1727 6.83908 78.1727H146.68L105.239 36.6879C102.568 34.0143 102.568 29.6785 105.239 27.0049Z" fill="#4545F7"/>
</svg>
