<svg width="31" height="31" viewBox="0 0 31 31" fill="none" xmlns="http://www.w3.org/2000/svg">
<path d="M28.6621 0.292969C29.0526 -0.0975361 29.6856 -0.0974325 30.0762 0.292969C30.4666 0.683484 30.4667 1.31652 30.0762 1.70703L16.5977 15.1855L30.0762 28.665C30.4666 29.0556 30.4667 29.6886 30.0762 30.0791C29.6857 30.4693 29.0525 30.4694 28.6621 30.0791L15.1846 16.5996L1.70703 30.0791C1.31658 30.4694 0.683466 30.4693 0.292969 30.0791C-0.0975307 29.6886 -0.0974163 29.0556 0.292969 28.665L13.7705 15.1855L0.292969 1.70703C-0.0975296 1.3165 -0.0975424 0.683479 0.292969 0.292969C0.6835 -0.0975296 1.31652 -0.0975424 1.70703 0.292969L15.1846 13.7715L28.6621 0.292969Z" fill="#4545F7"/>
</svg>
