<svg width="120" height="70" viewBox="0 0 120 70" fill="none" xmlns="http://www.w3.org/2000/svg">
<path d="M0.915592 35.6275C0.258242 35.2539 0.258242 34.6378 0.909973 34.2615L58.9365 0.702532C59.5911 0.323398 60.6614 0.323398 61.3159 0.696956L119.087 33.7931C119.741 34.1695 119.741 34.7828 119.087 35.1591L61.0237 68.5034C60.3692 68.8798 59.2961 68.8826 58.6415 68.509L0.915592 35.6275Z" fill="#0D0826"/>
<path d="M0.915592 35.6275C0.258242 35.2539 0.258242 34.6378 0.909973 34.2615L58.9365 0.702532C59.5911 0.323398 60.6614 0.323398 61.3159 0.696956L119.087 33.7931C119.741 34.1695 119.741 34.7828 119.087 35.1591L61.0237 68.5034C60.3692 68.8798 59.2961 68.8826 58.6415 68.509L0.915592 35.6275Z" stroke="#4545F7" stroke-width="2" stroke-linejoin="round"/>
</svg>
