<svg width="120" height="125" viewBox="0 0 120 125" fill="none" xmlns="http://www.w3.org/2000/svg">
<g clip-path="url(#clip0_777_4984)">
<path d="M0.915592 91.4244C0.258242 91.0508 0.258242 90.4347 0.909973 90.0584L58.9365 56.4994C59.5911 56.1203 60.6614 56.1203 61.3159 56.4938L119.087 89.59C119.741 89.9664 119.741 90.5797 119.087 90.956L61.0237 124.3C60.3692 124.677 59.2961 124.679 58.6415 124.306L0.915592 91.4244Z" fill="#0D0826"/>
<path d="M0.915592 91.4244C0.258242 91.0508 0.258242 90.4347 0.909973 90.0584L58.9365 56.4994C59.5911 56.1203 60.6614 56.1203 61.3159 56.4938L119.087 89.59C119.741 89.9664 119.741 90.5797 119.087 90.956L61.0237 124.3C60.3692 124.677 59.2961 124.679 58.6415 124.306L0.915592 91.4244Z" stroke="#4545F7" stroke-width="2" stroke-linejoin="round"/>
<path d="M0.915592 64.355C0.258242 63.9815 0.258242 63.3654 0.909973 62.989L58.9365 29.4301C59.5911 29.0509 60.6614 29.0509 61.3159 29.4245L119.087 62.5207C119.741 62.897 119.741 63.5103 119.087 63.8867L61.0237 97.231C60.3692 97.6073 59.2961 97.6101 58.6415 97.2366L0.915592 64.355Z" fill="#0D0826"/>
<path d="M0.915592 64.355C0.258242 63.9815 0.258242 63.3654 0.909973 62.989L58.9365 29.4301C59.5911 29.0509 60.6614 29.0509 61.3159 29.4245L119.087 62.5207C119.741 62.897 119.741 63.5103 119.087 63.8867L61.0237 97.231C60.3692 97.6073 59.2961 97.6101 58.6415 97.2366L0.915592 64.355Z" stroke="#4545F7" stroke-width="2" stroke-linejoin="round"/>
<path d="M0.915592 35.6275C0.258242 35.2539 0.258242 34.6378 0.909973 34.2615L58.9365 0.702532C59.5911 0.323398 60.6614 0.323398 61.3159 0.696956L119.087 33.7931C119.741 34.1695 119.741 34.7828 119.087 35.1591L61.0237 68.5034C60.3692 68.8798 59.2961 68.8826 58.6415 68.509L0.915592 35.6275Z" fill="#0D0826"/>
<path d="M0.915592 35.6275C0.258242 35.2539 0.258242 34.6378 0.909973 34.2615L58.9365 0.702532C59.5911 0.323398 60.6614 0.323398 61.3159 0.696956L119.087 33.7931C119.741 34.1695 119.741 34.7828 119.087 35.1591L61.0237 68.5034C60.3692 68.8798 59.2961 68.8826 58.6415 68.509L0.915592 35.6275Z" stroke="#4545F7" stroke-width="2" stroke-linejoin="round"/>
</g>
<defs>
<clipPath id="clip0_777_4984">
<rect width="120" height="125" fill="white"/>
</clipPath>
</defs>
</svg>
