<svg width="120" height="125" viewBox="0 0 120 125" fill="none" xmlns="http://www.w3.org/2000/svg">
<g clip-path="url(#clip0_777_4987)">
<path d="M0.915592 81.4244C0.258242 81.0508 0.258242 80.4347 0.909973 80.0584L58.9365 46.4994C59.5911 46.1203 60.6614 46.1203 61.3159 46.4938L119.087 79.59C119.741 79.9664 119.741 80.5797 119.087 80.956L61.0237 114.3C60.3692 114.677 59.2961 114.679 58.6415 114.306L0.915592 81.4244Z" fill="url(#paint0_linear_777_4987)"/>
<path d="M0.915592 81.4244C0.258242 81.0508 0.258242 80.4347 0.909973 80.0584L58.9365 46.4994C59.5911 46.1203 60.6614 46.1203 61.3159 46.4938L119.087 79.59C119.741 79.9664 119.741 80.5797 119.087 80.956L61.0237 114.3C60.3692 114.677 59.2961 114.679 58.6415 114.306L0.915592 81.4244Z" stroke="#4545F7" stroke-width="2" stroke-linejoin="round"/>
<path d="M0.915592 64.355C0.258242 63.9815 0.258242 63.3654 0.909973 62.989L58.9365 29.4301C59.5911 29.0509 60.6614 29.0509 61.3159 29.4245L119.087 62.5207C119.741 62.897 119.741 63.5103 119.087 63.8867L61.0237 97.231C60.3692 97.6073 59.2961 97.6101 58.6415 97.2366L0.915592 64.355Z" fill="url(#paint1_linear_777_4987)"/>
<path d="M0.915592 64.355C0.258242 63.9815 0.258242 63.3654 0.909973 62.989L58.9365 29.4301C59.5911 29.0509 60.6614 29.0509 61.3159 29.4245L119.087 62.5207C119.741 62.897 119.741 63.5103 119.087 63.8867L61.0237 97.231C60.3692 97.6073 59.2961 97.6101 58.6415 97.2366L0.915592 64.355Z" stroke="#4545F7" stroke-width="2" stroke-linejoin="round"/>
<path d="M0.915592 45.6275C0.258242 45.2539 0.258242 44.6378 0.909973 44.2615L58.9365 10.7025C59.5911 10.3234 60.6614 10.3234 61.3159 10.697L119.087 43.7931C119.741 44.1695 119.741 44.7828 119.087 45.1591L61.0237 78.5034C60.3692 78.8798 59.2961 78.8826 58.6415 78.509L0.915592 45.6275Z" fill="url(#paint2_linear_777_4987)"/>
<path d="M0.915592 45.6275C0.258242 45.2539 0.258242 44.6378 0.909973 44.2615L58.9365 10.7025C59.5911 10.3234 60.6614 10.3234 61.3159 10.697L119.087 43.7931C119.741 44.1695 119.741 44.7828 119.087 45.1591L61.0237 78.5034C60.3692 78.8798 59.2961 78.8826 58.6415 78.509L0.915592 45.6275Z" stroke="#4545F7" stroke-width="2" stroke-linejoin="round"/>
</g>
<defs>
<linearGradient id="paint0_linear_777_4987" x1="0.421175" y1="80.3985" x2="119.578" y2="80.3985" gradientUnits="userSpaceOnUse">
<stop stop-color="#F21763"/>
<stop offset="0.12" stop-color="#EC1867"/>
<stop offset="0.28" stop-color="#DC1C75"/>
<stop offset="0.46" stop-color="#C1238C"/>
<stop offset="0.65" stop-color="#9C2DAC"/>
<stop offset="0.85" stop-color="#6D3AD4"/>
<stop offset="1" stop-color="#4545F7"/>
</linearGradient>
<linearGradient id="paint1_linear_777_4987" x1="0.421175" y1="63.3291" x2="119.578" y2="63.3291" gradientUnits="userSpaceOnUse">
<stop stop-color="#F21763"/>
<stop offset="0.13" stop-color="#F21668"/>
<stop offset="0.3" stop-color="#F31378"/>
<stop offset="0.49" stop-color="#F60F93"/>
<stop offset="0.69" stop-color="#F90AB8"/>
<stop offset="0.91" stop-color="#FD03E7"/>
<stop offset="1" stop-color="#FF00FF"/>
</linearGradient>
<linearGradient id="paint2_linear_777_4987" x1="0.421175" y1="44.6016" x2="119.578" y2="44.6016" gradientUnits="userSpaceOnUse">
<stop stop-color="#F21763"/>
<stop offset="0.1" stop-color="#F12068"/>
<stop offset="0.27" stop-color="#EF3978"/>
<stop offset="0.48" stop-color="#EB6191"/>
<stop offset="0.73" stop-color="#E69AB4"/>
<stop offset="1" stop-color="#E1E1E1"/>
</linearGradient>
<clipPath id="clip0_777_4987">
<rect width="120" height="125" fill="white"/>
</clipPath>
</defs>
</svg>
