<?xml version="1.0" encoding="UTF-8"?>
<svg id="Livello_1" xmlns="http://www.w3.org/2000/svg" version="1.1" viewBox="125 103 550 550">
  <!-- Generator: Adobe Illustrator 30.2.1, SVG Export Plug-In . SVG Version: 2.1.1 Build 1)  -->
  <defs>
    <style>
      .st0 {
        fill: none;
      }

      .st1 {
        fill: #e1e1e0;
      }

      .st2 {
        fill: #0600b8;
      }

      .st3 {
        fill: #4545f7;
      }
    </style>
  </defs>
  <path class="st1" d="M651.25,378.73c0-138.48-112.26-250.74-250.74-250.74s-250.74,112.26-250.74,250.74,112.26,250.74,250.74,250.74,250.74-112.26,250.74-250.74Z"/>
  <path class="st3" d="M651.25,378.73c0,138.48-112.26,250.74-250.74,250.74s-250.74-112.26-250.74-250.74,112.26-250.74,250.74-250.74,250.74,112.26,250.74,250.74ZM515.37,520.26l29.16.03c8.7,0,16.78-7.8,14.02-16.94l-8.26-27.28c-1.95-6.45,1.99-20.6-12.86-28.05,6.02-3.53,9.24-9.13,9.17-15-.07-5.72-3.22-10.8-8.42-14.3l.06-86.69,20.75-9.16c3.4-1.5,5.04-6.22,4.41-9.54-.66-3.51-3.43-5.91-7.29-7.6l-147.08-64.42c-14.32-6.27-28.38-4.55-42.42,1.61l-142.8,62.68c-4.11,1.8-7.14,3.74-7.47,7.52-.29,3.34.34,8.02,3.93,9.59l151.58,66.51c10.72,4.7,23.35,5.34,34.18.61l116.32-50.76.03,79.73c-6,3.69-8.75,9.54-8.3,15.54.46,6.06,4.04,11.01,9.53,13.66-14,5.3-11.69,19.72-13.57,28.4-3.6,16.66-12.82,28.77-5.49,38.43,2.11,2.78,6.6,5.41,10.83,5.41ZM478.95,447.84c7.02-5.44,8.71-11.53,8.7-19.4l-.05-58.39-80.13,35.04c-12.06,5.27-25.2,4.45-36.95-.64l-78.44-34.45-.15,30.47-.06,29.01c-1.84,20.18,28.69,29.58,44.17,32.72,35.64,7.24,72.23,7.15,107.9-.03,12.76-2.57,24.68-7,35.01-14.35Z"/>
  <g>
    <path class="st0" d="M406.02,389.84l116.32-50.76.03,79.73c-6,3.69-8.75,9.54-8.3,15.54.46,6.06,4.04,11.01,9.53,13.66-14,5.3-11.69,19.72-13.57,28.4-3.6,16.66-12.82,28.77-5.49,38.43,2.11,2.78,6.6,5.41,10.83,5.41l29.16.03c8.7,0,16.78-7.8,14.02-16.94l-8.26-27.28c-1.95-6.45,1.99-20.6-12.86-28.05,6.02-3.53,9.24-9.13,9.17-15-.07-5.72-3.22-10.8-8.42-14.3l.06-86.69,20.75-9.16c3.4-1.5,5.04-6.22,4.41-9.54-.16-.85-.45-1.64-.85-2.37-.67-1.22-1.65-2.27-2.87-3.19-1.04-.78-2.24-1.46-3.58-2.05l-78.77-34.5-68.32-29.92c-14.32-6.27-28.38-4.55-42.42,1.61l-142.8,62.68c-4.11,1.8-7.14,3.74-7.47,7.52-.29,3.34.34,8.02,3.93,9.59l134.31,58.93,17.26,7.58c10.72,4.7,23.35,5.34,34.18.61Z"/>
    <path class="st0" d="M336.04,462.22c35.64,7.24,72.23,7.15,107.9-.03,12.76-2.57,24.68-7,35.01-14.35,7.02-5.44,8.71-11.53,8.7-19.4l-.05-58.39-80.13,35.04c-12.06,5.27-25.2,4.45-36.95-.64l-27.75-12.19-50.68-22.26-.15,30.47-.06,29.01c-.25,2.77.12,5.32.96,7.69,5.3,14.93,29.85,22.31,43.2,25.03Z"/>
    <path class="st0" d="M291.39,438.49l1.44-1.3c-.84-2.37-1.22-4.93-.96-7.69l.06-29.01.15-30.47,50.68,22.26,11.8-10.62-134.31-58.93c-3.59-1.57-4.22-6.25-3.93-9.59.33-3.78,3.36-5.72,7.47-7.52l142.8-62.68c14.04-6.16,28.1-7.89,42.42-1.61l68.32,29.92,27.35-24.6,55,61.14c1.22.91,2.2,1.96,2.87,3.19l87.03,96.75c1.09-9.51,1.68-19.17,1.68-28.98,0-138.48-112.26-250.74-250.74-250.74s-250.74,112.26-250.74,250.74,112.26,250.74,250.74,250.74c19.55,0,38.58-2.24,56.85-6.47l-165.97-184.5Z"/>
    <path class="st2" d="M556.1,305.73c1.34.59,2.54,1.27,3.58,2.05"/>
    <path class="st2" d="M563.4,313.33c.63,3.32-1.01,8.04-4.41,9.54l-20.75,9.16-.06,86.69c5.19,3.5,8.35,8.58,8.42,14.3.07,5.88-3.15,11.47-9.17,15,14.85,7.44,10.91,21.6,12.86,28.05l8.26,27.28c2.77,9.14-5.32,16.95-14.02,16.94l-29.16-.03c-4.23,0-8.72-2.64-10.83-5.41-7.33-9.66,1.9-21.77,5.49-38.43,1.87-8.68-.44-23.09,13.57-28.4-5.49-2.65-9.07-7.61-9.53-13.66-.46-6,2.3-11.85,8.3-15.54l-.03-79.73-116.32,50.76c-10.83,4.73-23.46,4.1-34.18-.61l-79.38-34.68-.37,15.47,78.44,34.45c11.75,5.09,24.89,5.91,36.95.64l80.13-35.04.05,58.39c0,7.86-1.69,13.96-8.7,19.4-10.33,7.35-22.25,11.79-35.01,14.35-35.67,7.18-72.26,7.27-107.9.03-13.35-2.71-31.32-9.3-39.16-18.12h0l160.49,178.89c101.94-23.63,180.03-109.43,192.22-215.29l-87.03-96.75c.4.73.69,1.52.85,2.37Z"/>
  </g>
</svg>