<?xml version="1.0" encoding="UTF-8"?>
<svg id="Livello_1" xmlns="http://www.w3.org/2000/svg" xmlns:xlink="http://www.w3.org/1999/xlink" version="1.1" viewBox="125 103 550 550">
  <!-- Generator: Adobe Illustrator 30.2.1, SVG Export Plug-In . SVG Version: 2.1.1 Build 1)  -->
  <defs>
    <style>
      .st0, .st1 {
        fill: none;
      }

      .st2 {
        fill: #97178f;
      }

      .st1 {
        clip-path: url(#clippath);
      }

      .st3 {
        clip-path: url(#clippath-1);
      }

      .st4 {
        fill: #fff;
      }

      .st5 {
        fill: #381745;
      }

      .st6 {
        fill: #c600ff;
      }
    </style>
    <clipPath id="clippath">
      <path class="st0" d="M649.49,378.73c0,138.48-112.26,250.74-250.74,250.74s-250.74-112.26-250.74-250.74,112.26-250.74,250.74-250.74,250.74,112.26,250.74,250.74Z"/>
    </clipPath>
    <clipPath id="clippath-1">
      <path class="st1" d="M649.49,378.73c0,138.48-112.26,250.74-250.74,250.74s-250.74-112.26-250.74-250.74,112.26-250.74,250.74-250.74,250.74,112.26,250.74,250.74Z"/>
    </clipPath>
  </defs>
  <circle class="st4" cx="569.29" cy="408.7" r="8.43"/>
  <circle class="st4" cx="544.36" cy="452.22" r="8.42"/>
  <circle class="st4" cx="467.14" cy="510.65" r="8.34"/>
  <circle class="st4" cx="542.31" cy="517.3" r="8.36"/>
  <g>
    <g>
      <path class="st6" d="M649.49,378.73c0,138.48-112.26,250.74-250.74,250.74s-250.74-112.26-250.74-250.74,112.26-250.74,250.74-250.74,250.74,112.26,250.74,250.74Z"/>
      <path class="st6" d="M649.49,378.73c0,138.48-112.26,250.74-250.74,250.74s-250.74-112.26-250.74-250.74,112.26-250.74,250.74-250.74,250.74,112.26,250.74,250.74Z"/>
    </g>
    <path class="st2" d="M581.26,421.87c.79-.72,1.55-1.51,2.26-2.41,5.19-6.6,5.39-15.61-.63-23.68-5-6.71-14.83-4.47-21.83-4.55-22.52-11.81-27.91-50.02-51.55-73.85l-70.63-71.16c-7.99-8.05-20.01-9.04-30.91-4.8-8.22,3.2-13.85,11.94-17.34,22.74-9.09-11.04-21.96-12.2-34.14-7.55-9.73,3.71-15.13,15.32-16.31,26.38-18.37-3.37-33.65,6.02-37.54,24.89l-52.98-52.53c-11.5-11.4-30.1-8.38-39.37,2.32-10.11,11.68-9.78,27.76,1.48,39.04l109.44,109.64c-23.22-.05-44.5-7.75-63.92,11.31-4.6,4.52-6.36,12.48-4.21,18.49,1.58,4.41,5.59,10.65,11.04,12.95l116.89,49.34,58.16-10.05,15.02,15.77c-5.26,10.39-1.26,19.08,6.53,24.17,6.71,4.39,14.76,3.24,21-2.01l59.06,59.06c40.38-27.81,72.2-67.14,90.72-113.25l-50.25-50.25Z"/>
    <path class="st5" d="M474.76,456.17l-27.67,27.38,13.36,13.9c9.23-3.38,17.86-2.21,23.39,4.41,5.69,6.82,5.18,17.66-.89,23.61-6.39,6.26-15.12,7.91-22.32,3.21-7.79-5.09-11.78-13.78-6.53-24.16l-15.01-15.76-58.12,10.05-116.83-49.31c-5.45-2.3-9.46-8.54-11.04-12.95-2.15-6-.39-13.96,4.21-18.48,19.41-19.05,40.68-11.35,63.89-11.3l-109.38-109.58c-11.25-11.27-11.59-27.34-1.48-39.02,9.26-10.7,27.86-13.71,39.35-2.32l52.95,52.5c3.89-18.86,19.17-28.24,37.52-24.88,1.17-11.05,6.58-22.65,16.3-26.36,12.18-4.65,25.03-3.49,34.12,7.55,3.49-10.8,9.11-19.53,17.33-22.73,10.89-4.24,22.9-3.25,30.89,4.8l70.59,71.12c23.63,23.81,29.01,62,51.52,73.8,7,.08,16.81-2.15,21.81,4.55,6.02,8.06,5.81,17.07.63,23.66-6.27,7.97-16.13,8.64-23.67,4.17-8.29-4.9-9.94-14.11-6.52-23.75-3.24-3.96-7.78-8.29-11.74-11.33l-26.58,26.85,22.89,22.89c8.96-2.07,18.03-2.72,23.46,4.76,5.42,7.47,5.21,17.24-1.48,24.2-5.63,5.86-15.78,7.45-23.82,1.68-6.15-4.41-9.53-14.27-4.49-23.32l-23.74-23.28-26.09,26.67,54.78,54.55c9.75-3.56,18.16-2.08,23.55,5.65,4.99,7.15,4.07,17-2.76,23.53-6.04,5.77-15.24,6.12-22.19,1.74-8.33-5.25-9.34-14.64-6.08-24.36l-54.12-54.37ZM430.07,253.04c-9.33-6.51-19.52-4.01-25.14,3.14-4.51,5.74-5.38,14.85.55,21.53l24.59-24.67ZM262.34,281.9l-17.8-17.84c-7.56-7.58-19.89-7.76-27.34.6-6.18,6.93-6.39,18.01,1.22,25.7l17.88,18.08,26.03-26.55ZM438.31,479.04l97.85-97.99c-9.69-18.15-16.82-37.43-30.42-52.54-21.73-24.15-44.64-45.86-68.03-69.18l-125.19,125.24,55.42,55.56,16.83,48.42,53.55-9.51ZM398,285.06l-16.29-16.02c-7.46-7.34-18.33-6.4-25.69.15-6.15,5.47-8.81,16.71-2.05,24.06,5.8,6.32,11.64,12.03,17.95,18.17l26.08-26.37ZM289.8,309.31l-20.62-20.38-25.87,26.15,20.26,20.6,26.23-26.37ZM364.88,318.14l-21.69-21.3c-7.28-7.15-19.33-4.63-25.05,1.23-6.31,6.46-7.58,18.2-1.02,24.78l21.64,21.7,26.12-26.41ZM331.8,351.35l-35.05-34.97-26.36,26.09,35.09,35.22,26.33-26.34ZM307.31,457.03l21.31-38.22-26.67-3.78c-16.26-2.31-43.95,3.85-39.59,18.86.76,2.62,4.47,6.6,7.42,7.8l37.54,15.34ZM372.7,484.58l-12.88-39.49-22.46-21.69-21.47,37.69,56.81,23.49Z"/>
    <g class="st3">
      <g>
        <rect class="st5" x="509.29" y="509.38" width="10" height="95.93" transform="translate(-242.58 509.71) rotate(-43.7)"/>
        <rect class="st5" x="605.95" y="405.68" width="10" height="95.93" transform="translate(-144.17 547.69) rotate(-43.69)"/>
      </g>
    </g>
  </g>
</svg>