<?xml version="1.0" encoding="UTF-8"?>
<svg id="Livello_1" xmlns="http://www.w3.org/2000/svg" xmlns:xlink="http://www.w3.org/1999/xlink" version="1.1" viewBox="0 0 800 800">
  <!-- Generator: Adobe Illustrator 30.2.1, SVG Export Plug-In . SVG Version: 2.1.1 Build 1)  -->
  <defs>
    <style>
      .st0 {
        fill: none;
      }

      .st1 {
        fill: #ff4a36;
      }

      .st2 {
        clip-path: url(#clippath);
      }
    </style>
    <clipPath id="clippath">
      <rect class="st0" x="148.06" y="127.13" width="503.58" height="503.58"/>
    </clipPath>
  </defs>
  <g class="st2">
    <path class="st1" d="M417.37,454.68c5.97-5.23,10.88-11.95,15.21-18.55-19.97-15.4-35.04-12.59-42.05-9.87-11.37,4.42-20.5,19.29-12.58,30.53,8.95,12.69,27.4,8.45,39.42-2.12M500.02,331.36c-3.13,8.32-5.91,16.75-8.59,25.24,5.84-2.31,11.52-4.94,16.93-7.74,11.28-5.83,21.41-13.36,28.04-24.5,4.27-7.18,9.29-21.32,4.41-27.77-4.68-6.18-16.32-4.33-21.57-.04-9.78,7.96-14.9,23.31-19.23,34.81M591.02,417.89c.03.92.15,6.25-.77,15.72-3.12,32.13-33.84,59.53-66.41,55.99-17.77-1.92-33.7-11.01-47.56-21.72-11.54-8.95-14.43-10.95-23.28-18.65-17.74,21.75-34.12,43.79-61.35,41.47-31.42-2.67-48.53-38.39-31.86-65.36,16.24-26.28,50.08-27.27,75.68-16.11,3.17,1.36,6.26,2.89,9.31,4.48,3.31-7.36,6.18-14.92,8.82-22.57-4.68-.08-9.27-.56-13.75-1.49-21.32-4.45-45.72-20.15-60.03-36.61-.13-.15-.24-.31-.36-.46l18.17-18.37c.14.15.26.28.4.42,15.56,17.92,40.85,32.35,64.06,29.76,2.2-7.25,4.38-14.51,6.72-21.69,8.2-25.12,18.3-61.54,44.94-72.44,24.11-9.84,51.99,2.76,54.2,30.28,2.28,28.39-17.38,53.65-40.44,67.37-13.26,7.89-29.26,15.33-45.71,19.56-4.3,13.47-8.97,26.88-14.85,39.7,15.31,14.04,28.34,23.47,43.62,31.38,11.47,5.93,22.53,6.97,34.17.89,9.8-5.11,18.34-15.75,20.84-27.11,1.27-5.79,1.5-13.62,1.57-14.54l23.84.08ZM403.37,300.87h-79.59v-30.96h79.59v30.96ZM287.92,301.5h35.86v186.37h-35.86v-186.37ZM287.91,300.87h-79.24v-30.96h79.24v30.96ZM651.65,378.92c0-139.06-112.74-251.8-251.8-251.8s-251.79,112.74-251.79,251.8,112.72,251.8,251.79,251.8,251.8-112.74,251.8-251.8"/>
  </g>
</svg>